<?xml version="1.0" encoding="utf-8"?>
<!DOCTYPE svg PUBLIC "-//W3C//DTD SVG 1.0//EN" "http://www.w3.org/TR/2001/REC-SVG-20010904/DTD/svg10.dtd">
<svg version="1.0" xmlns="http://www.w3.org/2000/svg" width="2272px" height="1883px" viewBox="0 0 2272 1883" preserveAspectRatio="xMidYMid meet">
 <g fill="#f8f8f7">
  <path d="M0 941.26 l0 -941.26 1136 0 1136 0 0 941.26 0 941.26 -1136 0 -1136 0 0 -941.26z"/>
 </g>
 <g fill="#000001">
  <path d="M1476.60 1779.06 l-500.25 -1.01 -12.98 -11.36 c-35.70 -31.04 -82.77 -71.81 -107.31 -92.71 -15.01 -12.98 -31.44 -27.39 -36.51 -32.25 l-9.33 -8.72 -257.43 -0.41 -257.63 -0.61 -0.41 -221.11 -0.41 -221.11 -22.92 -20.29 c-12.78 -11.16 -50.31 -43.82 -83.78 -72.62 l-60.86 -52.34 -1.01 -207.93 c-0.61 -114.21 -0.61 -208.74 -0.41 -209.75 0.41 -1.22 6.29 3.04 13.19 9.13 6.69 6.09 13.19 11.16 14.40 11.16 1.22 -0.20 7.51 -5.07 13.79 -11.16 l11.77 -10.95 -15.82 -13.79 c-8.52 -7.51 -20.49 -17.85 -26.17 -22.72 l-10.75 -8.93 0 -198.60 0 -198.80 12.58 10.55 c7.10 5.88 31.85 27.18 55.38 47.67 23.53 20.49 55.38 48.08 71 61.47 l28.40 24.55 1.01 -69.38 c0.61 -38.14 1.42 -69.58 1.62 -69.78 0.20 -0.41 37.53 -0.81 82.77 -1.01 l82.16 -0.61 -38.14 -32.66 c-61.26 -52.34 -116.85 -100.41 -122.32 -105.49 l-5.07 -4.87 496.39 0 496.39 0 37.12 32.05 c20.49 17.65 58.02 50.11 83.78 72.01 l46.45 39.96 261.28 0 261.28 0 0 223.95 0 223.95 71.61 61.47 c39.15 33.88 76.68 66.13 83.17 71.61 l11.56 10.14 0 202.45 c0 111.37 -0.61 202.45 -1.42 202.45 -0.81 0 -3.25 -1.83 -5.68 -4.06 l-4.46 -4.06 -12.98 12.17 -12.98 12.17 13.19 11.56 c7.10 6.49 15.62 14 18.66 16.84 l5.68 5.07 -0.41 201.84 -0.61 201.64 -29.41 -25.15 c-16.03 -14 -52.54 -45.64 -80.94 -70.59 -28.40 -24.75 -52.34 -44.43 -53.35 -43.41 -0.81 0.81 -1.83 31.65 -2.03 68.36 l-0.61 66.94 -79.11 0.61 c-43.41 0.20 -80.33 0.81 -81.75 1.42 -2.64 1.01 5.07 8.11 60.45 55.79 86.42 74.65 102.65 88.85 101.23 89.66 -0.41 0.41 -225.98 0.20 -501.06 -0.41z m-437.97 -216.04 c39.56 -34.08 100.21 -86.21 167.36 -144.23 24.55 -21.10 51.12 -43.82 58.83 -50.31 7.91 -6.69 14.20 -12.78 14.20 -13.59 0 -1.01 -7.91 -8.32 -17.45 -16.43 -25.76 -21.91 -56.19 -48.28 -86.82 -75.06 -15.01 -13.19 -27.79 -23.94 -28.60 -23.94 -2.03 0 -41.38 33.88 -198.60 170.40 -24.95 21.71 -53.96 46.66 -64.51 55.38 -10.35 8.72 -18.87 16.63 -18.66 17.24 0 0.81 9.33 9.33 20.69 19.07 11.36 9.74 41.18 35.30 66.33 57.21 37.53 32.46 46.25 38.95 48.69 37.12 1.62 -1.42 19.07 -16.23 38.54 -32.86z m-191.90 -149.30 c16.84 -14.61 66.33 -57.41 109.75 -94.73 43.61 -37.53 92.91 -80.13 109.54 -94.53 16.84 -14.40 30.43 -26.98 30.43 -27.79 0 -0.81 -34.28 -31.04 -76.27 -67.15 -70.59 -60.65 -101.43 -87.23 -177.30 -152.75 -15.62 -13.59 -42.19 -36.31 -59.03 -50.92 -44.63 -38.34 -68.97 -59.44 -126.18 -109.34 -28.40 -24.55 -52.74 -45.44 -54.16 -46.45 -1.83 -1.42 -19.47 12.78 -61.06 48.69 -73.23 63.29 -173.44 149.51 -202.05 174.05 -11.97 10.14 -21.71 19.07 -21.71 19.68 -0.20 0.61 7.30 7.51 16.43 15.21 14.61 12.17 76.48 65.73 112.18 96.97 6.69 5.68 32.25 27.79 56.80 48.89 101.63 87.43 272.44 234.50 294.55 253.98 8.11 7.10 15.42 12.78 16.03 12.78 0.61 0 15.01 -11.97 32.05 -26.57z m1208.62 -281.97 c6.49 -5.88 11.56 -11.16 11.36 -11.97 -0.41 -0.81 -22.11 -19.88 -48.28 -42.60 -26.17 -22.52 -63.09 -54.37 -81.75 -70.80 -18.87 -16.23 -35.30 -30.23 -36.72 -31.04 -1.62 -0.81 -7.51 3.25 -15.21 10.14 l-12.78 11.56 19.88 17.24 c38.34 32.86 131.65 113.19 139.77 120.50 4.46 3.85 8.93 7.10 9.94 7.30 0.81 0 7.10 -4.67 13.79 -10.35z m-324.77 -115.43 c48.89 -42.40 133.89 -115.83 185.41 -159.85 19.07 -16.23 38.34 -33.07 43.01 -37.12 l8.32 -7.71 -26.57 -22.92 c-14.81 -12.58 -71.61 -61.67 -126.38 -109.14 -54.77 -47.47 -111.77 -96.76 -126.79 -109.54 -15.21 -12.78 -67.35 -58.02 -116.24 -100.41 -48.89 -42.40 -91.69 -79.32 -94.73 -81.75 l-5.88 -4.87 -12.58 10.95 c-7.10 5.88 -40.57 34.89 -74.65 64.31 -34.08 29.41 -73.64 63.70 -88.04 76.07 -14.40 12.37 -34.08 29.41 -43.82 37.73 -9.53 8.32 -27.79 23.94 -40.17 34.49 -12.37 10.55 -22.31 19.88 -22.11 20.49 0.20 0.61 30.63 27.18 67.55 58.83 92.91 79.72 136.12 116.85 217.67 187.24 38.54 33.27 85.20 73.43 103.46 89.26 18.26 15.62 49.90 43.01 69.99 60.45 20.29 17.65 37.33 31.85 38.14 31.44 0.81 -0.20 20.69 -17.24 44.43 -37.93z m-1329.93 -179.33 c6.69 -6.09 11.77 -11.36 11.16 -11.77 -0.61 -0.61 -15.21 -13.19 -32.46 -27.99 -17.24 -14.81 -54.97 -47.67 -83.78 -72.83 -29.01 -25.15 -53.15 -46.05 -53.76 -46.25 -0.81 -0.20 -7.30 4.87 -14.20 11.16 l-12.98 11.56 68.77 59.03 c37.73 32.66 75.87 65.52 84.79 73.43 8.93 7.91 17.24 14.40 18.26 14.40 1.22 0 7.51 -4.87 14.20 -10.75z m785.46 -290.69 c24.55 -21.10 57.21 -49.09 72.83 -62.68 15.42 -13.39 58.42 -50.31 95.14 -81.75 36.92 -31.65 67.15 -58.02 67.55 -58.83 0.20 -0.81 -25.76 -24.34 -57.81 -52.13 -31.85 -27.79 -61.47 -53.55 -65.73 -57.21 -4.06 -3.45 -8.11 -6.49 -8.93 -6.49 -0.81 0 -10.75 8.11 -22.11 17.85 -11.16 9.94 -52.34 45.44 -91.49 78.91 -146.67 126.18 -168.37 145.04 -168.78 146.26 -0.41 2.03 129.63 113.60 132.67 113.80 1.22 0.20 22.31 -16.84 46.66 -37.73z"/>
 </g>
 <g fill="#277347">
  <path d="M1800.56 1624.68 c-5.68 -5.07 -36.72 -32.05 -69.17 -59.64 -32.25 -27.79 -77.90 -67.15 -101.43 -87.23 -23.33 -20.08 -84.59 -72.62 -135.91 -116.85 -161.68 -138.75 -182.17 -156.40 -306.31 -263.51 -27.79 -24.14 -83.58 -72.01 -123.74 -106.50 -40.17 -34.49 -83.58 -71.81 -96.36 -83.17 -12.78 -11.36 -46.05 -40.17 -74.04 -64.10 -52.74 -45.24 -152.95 -131.65 -183.38 -158.03 -9.74 -8.32 -43.61 -37.53 -75.46 -64.91 -31.65 -27.18 -83.98 -72.42 -116.44 -100.41 -103.46 -89.46 -201.84 -174.25 -213.20 -183.59 l-10.95 -9.13 0 -65.93 c0 -36.31 0.61 -67.96 1.22 -70.59 l1.22 -4.46 82.77 0 82.77 0 200.42 172.02 c110.35 94.53 222.13 190.48 248.30 213.20 125.16 108.33 233.49 201.44 319.30 275.07 6.49 5.68 20.29 17.45 30.63 26.37 98.39 85.20 124.35 107.51 193.73 167.15 76.88 66.13 123.95 106.70 189.67 163.50 31.04 26.78 60.25 51.93 64.91 55.79 12.58 10.35 74.45 63.70 109.54 94.33 16.84 14.61 44.63 38.75 61.87 53.76 32.46 27.99 43.41 37.33 77.49 67.35 l20.29 17.65 -0.41 68.57 c0 37.73 -0.81 69.17 -1.62 69.99 -0.81 0.81 -38.34 1.83 -83.58 2.03 l-81.95 0.61 -10.14 -9.33z"/>
  <path d="M295.56 1631.58 c-2.43 -2.23 -1.62 -436.35 0.61 -437.77 1.22 -0.81 6.90 2.64 12.78 7.51 10.75 8.93 142.20 121.71 229.43 196.97 26.78 23.33 53.96 46.66 60.05 51.73 43.41 37.12 131.05 112.99 179.53 155.39 8.93 7.91 19.88 17.45 24.34 21.10 l8.11 6.49 -256.82 0 c-141.19 0 -257.43 -0.61 -258.03 -1.42z"/>
  <path d="M1949.25 611.01 c-29.82 -25.97 -136.12 -117.05 -225.98 -193.93 -31.24 -26.78 -72.83 -62.48 -92.30 -79.32 -101.02 -87.03 -138.15 -119.08 -154.37 -132.67 -9.94 -8.11 -17.45 -15.62 -16.84 -16.63 0.61 -1.01 112.79 -1.83 259.66 -1.83 l258.44 0 0 224.16 c0 123.34 -0.20 224.16 -0.41 223.95 -0.41 0 -12.98 -10.75 -28.20 -23.73z"/>
 </g>
</svg>